# xmcd
#
# Track frame offsets: 
#        150
#        15925
#        27978
#        43592
#        57066
#        79332
#        91216
#        103365
#        113931
#
# Disc length: 1816 seconds
#
# Revision: 0
# Processed by: cddbd v1.5.2PL0 Copyright (c) Steve Scherf et al.
# Submitted via: ExactAudioCopy v1.3
#
DISCID=69071609
DTITLE=The Blues Freaks - I'll Take The Blame
DYEAR=2017
DGENRE=Blues
TTITLE0=Back Door Blues
TTITLE1=Dont Be Looking For Me
TTITLE2=I'll Take The Blame
TTITLE3=Drownin' Blues
TTITLE4=He's In The Jailhouse Now
TTITLE5=Hurtin' Blues
TTITLE6=Ten Foot Tall (And Bulletproof)
TTITLE7=Pickin' Blues And Drinkin' Wine
TTITLE8=Sold My Soul To The Devil
EXTD=
EXTT0=
EXTT1=
EXTT2=
EXTT3=
EXTT4=
EXTT5=
EXTT6=
EXTT7=
EXTT8=
PLAYORDER=
